<svg width="65" height="65" viewBox="0 0 65 65" fill="none" xmlns="http://www.w3.org/2000/svg">
<g id="icon-park-twotone:enquire">
<g id="Mask group">
<mask id="mask0_36_1775" style="mask-type:luminance" maskUnits="userSpaceOnUse" x="9" y="4" width="49" height="54">
<g id="Group">
<g id="Group_2">
<path id="Vector" d="M50.1048 21.6667C48.3091 21.6667 46.5869 20.9534 45.3171 19.6836C44.0473 18.4138 43.334 16.6917 43.334 14.8959C43.334 13.1002 44.0473 11.378 45.3171 10.1082C46.5869 8.83843 48.3091 8.12508 50.1048 8.12508C51.9006 8.12508 53.6227 8.83843 54.8925 10.1082C56.1623 11.378 56.8757 13.1002 56.8757 14.8959C56.8757 16.6917 56.1623 18.4138 54.8925 19.6836C53.6227 20.9534 51.9006 21.6667 50.1048 21.6667ZM16.2507 16.2501C14.8141 16.2501 13.4363 15.6794 12.4205 14.6636C11.4047 13.6478 10.834 12.27 10.834 10.8334C10.834 9.39683 11.4047 8.01907 12.4205 7.00325C13.4363 5.98743 14.8141 5.41675 16.2507 5.41675C17.6872 5.41675 19.065 5.98743 20.0808 7.00325C21.0966 8.01907 21.6673 9.39683 21.6673 10.8334C21.6673 12.27 21.0966 13.6478 20.0808 14.6636C19.065 15.6794 17.6872 16.2501 16.2507 16.2501Z" fill="#555555" stroke="white" stroke-width="2" stroke-miterlimit="2"/>
<path id="Vector_2" d="M35.209 52.8126L43.334 46.0418V37.9168C43.334 33.2232 46.0423 29.7918 50.1048 29.7918C54.1673 29.7918 56.8757 33.2232 56.8757 37.9168V56.8751M32.5007 44.6876L24.3757 37.9168V32.5001C24.3757 27.8066 21.6673 24.3751 17.6048 24.3751C13.5423 24.3751 10.834 27.8066 10.834 32.5001V56.8751" stroke="white" stroke-width="2" stroke-linecap="round" stroke-linejoin="round"/>
</g>
</g>
</mask>
<g mask="url(#mask0_36_1775)">
<path id="Vector_3" d="M0 0H65V65H0V0Z" fill="#0076CE"/>
</g>
</g>
</g>
</svg>
