<svg width="24" height="25" viewBox="0 0 24 25" fill="none" xmlns="http://www.w3.org/2000/svg">
<path fill-rule="evenodd" clip-rule="evenodd" d="M12.315 2.53247C14.745 2.53247 15.099 2.54547 16.123 2.59247C17.187 2.64147 17.914 2.81047 18.55 3.05747C19.2175 3.30834 19.8222 3.70183 20.322 4.21047C20.8306 4.71024 21.2241 5.31497 21.475 5.98247C21.722 6.61847 21.891 7.34547 21.94 8.40947C21.988 9.47647 22 9.81647 22 12.5325V12.6125C22 15.2555 21.988 15.5995 21.94 16.6555C21.891 17.7195 21.722 18.4465 21.475 19.0825C21.2241 19.75 20.8306 20.3547 20.322 20.8545C19.8222 21.3631 19.2175 21.7566 18.55 22.0075C17.914 22.2545 17.187 22.4235 16.123 22.4725C15.056 22.5205 14.716 22.5325 12 22.5325H11.92C9.277 22.5325 8.933 22.5205 7.877 22.4725C6.813 22.4235 6.086 22.2545 5.45 22.0075C4.7825 21.7566 4.17777 21.3631 3.678 20.8545C3.16936 20.3547 2.77587 19.75 2.525 19.0825C2.278 18.4465 2.109 17.7195 2.06 16.6555C2.013 15.6315 2 15.2765 2 12.8475V12.2175C2 9.78747 2.013 9.43347 2.06 8.40947C2.109 7.34547 2.278 6.61847 2.525 5.98247C2.77587 5.31497 3.16936 4.71024 3.678 4.21047C4.17777 3.70183 4.7825 3.30834 5.45 3.05747C6.086 2.81047 6.813 2.64147 7.877 2.59247C8.901 2.54547 9.256 2.53247 11.685 2.53247H12.315ZM12.234 4.33447H11.766C9.31 4.33447 8.982 4.34547 7.959 4.39247C6.984 4.43747 6.455 4.59947 6.102 4.73647C5.635 4.91847 5.302 5.13447 4.952 5.48447C4.602 5.83447 4.386 6.16747 4.204 6.63447C4.067 6.98747 3.904 7.51647 3.86 8.49147C3.813 9.51447 3.802 9.84247 3.802 12.2985V12.7665C3.802 15.2225 3.813 15.5505 3.86 16.5735C3.905 17.5485 4.067 18.0775 4.204 18.4305C4.386 18.8965 4.603 19.2305 4.952 19.5805C5.302 19.9305 5.635 20.1465 6.102 20.3285C6.455 20.4655 6.984 20.6285 7.959 20.6725C9.013 20.7205 9.329 20.7305 12 20.7305H12.08C14.677 20.7305 14.997 20.7205 16.04 20.6725C17.016 20.6275 17.545 20.4655 17.898 20.3285C18.364 20.1465 18.698 19.9305 19.048 19.5805C19.398 19.2305 19.614 18.8975 19.796 18.4305C19.933 18.0775 20.096 17.5485 20.14 16.5735C20.188 15.5185 20.198 15.2035 20.198 12.5325V12.4525C20.198 9.85547 20.188 9.53547 20.14 8.49247C20.095 7.51647 19.933 6.98747 19.796 6.63447C19.6358 6.20004 19.3802 5.80707 19.048 5.48447C18.7254 5.15233 18.3324 4.89673 17.898 4.73647C17.545 4.59947 17.016 4.43647 16.041 4.39247C15.018 4.34547 14.69 4.33447 12.234 4.33447ZM12 7.39747C12.6743 7.39747 13.3421 7.53029 13.9651 7.78835C14.5881 8.04641 15.1542 8.42465 15.631 8.90148C16.1078 9.37831 16.4861 9.94438 16.7441 10.5674C17.0022 11.1904 17.135 11.8581 17.135 12.5325C17.135 13.2068 17.0022 13.8745 16.7441 14.4976C16.4861 15.1206 16.1078 15.6866 15.631 16.1635C15.1542 16.6403 14.5881 17.0185 13.9651 17.2766C13.3421 17.5346 12.6743 17.6675 12 17.6675C10.6381 17.6675 9.33201 17.1265 8.36901 16.1635C7.40601 15.2005 6.865 13.8944 6.865 12.5325C6.865 11.1706 7.40601 9.86448 8.36901 8.90148C9.33201 7.93848 10.6381 7.39747 12 7.39747ZM12 9.19947C11.116 9.19947 10.2683 9.55063 9.64321 10.1757C9.01815 10.8007 8.667 11.6485 8.667 12.5325C8.667 13.4164 9.01815 14.2642 9.64321 14.8893C10.2683 15.5143 11.116 15.8655 12 15.8655C12.884 15.8655 13.7317 15.5143 14.3568 14.8893C14.9818 14.2642 15.333 13.4164 15.333 12.5325C15.333 11.6485 14.9818 10.8007 14.3568 10.1757C13.7317 9.55063 12.884 9.19947 12 9.19947ZM17.338 5.99447C17.6563 5.99447 17.9615 6.1209 18.1865 6.34594C18.4116 6.57099 18.538 6.87621 18.538 7.19447C18.538 7.51273 18.4116 7.81796 18.1865 8.043C17.9615 8.26804 17.6563 8.39447 17.338 8.39447C17.0197 8.39447 16.7145 8.26804 16.4895 8.043C16.2644 7.81796 16.138 7.51273 16.138 7.19447C16.138 6.87621 16.2644 6.57099 16.4895 6.34594C16.7145 6.1209 17.0197 5.99447 17.338 5.99447Z" fill="white"/>
</svg>
