<svg width="16" height="15" viewBox="0 0 16 15" fill="none" xmlns="http://www.w3.org/2000/svg">
<path d="M2.35931 0.332764C1.37531 0.332764 0.726562 1.00476 0.726562 1.89276C0.726562 2.75676 1.35094 3.45201 2.31094 3.45201C3.34294 3.45201 3.99094 2.75676 3.96694 1.89276C3.96694 1.00476 3.34331 0.332764 2.35931 0.332764ZM11.5746 4.46076C9.91856 4.46076 8.91094 5.42039 8.50294 6.09239H8.45531L8.31094 4.67676H5.64731C5.67131 5.58876 5.71894 6.64476 5.71894 7.89276V14.732H8.79056V8.94802C8.79056 8.66002 8.81456 8.37239 8.88656 8.15639C9.12656 7.58039 9.63094 6.98001 10.4709 6.98001C11.5989 6.98001 12.0309 7.86839 12.0309 9.16439V14.732H15.1269V8.80476C15.1269 5.82876 13.5906 4.46076 11.5746 4.46076ZM0.799312 4.67676V14.732H3.87094V4.67676H0.799312Z" fill="#FEFEFE"/>
</svg>
