<svg width="65" height="65" viewBox="0 0 65 65" fill="none" xmlns="http://www.w3.org/2000/svg">
<g id="icon-park-twotone:table-report">
<g id="Mask group">
<mask id="mask0_36_1785" style="mask-type:luminance" maskUnits="userSpaceOnUse" x="5" y="7" width="55" height="57">
<g id="Group">
<g id="Group_2">
<path id="Vector" d="M6.77148 12.4791C6.77148 11.4017 7.1995 10.3684 7.96136 9.6065C8.72323 8.84464 9.75654 8.41663 10.834 8.41663H43.334C44.4114 8.41663 45.4447 8.84464 46.2066 9.6065C46.9685 10.3684 47.3965 11.4017 47.3965 12.4791V62.5833H10.834C9.75654 62.5833 8.72323 62.1553 7.96136 61.3934C7.1995 60.6315 6.77148 59.5982 6.77148 58.5208V12.4791Z" fill="#555555" stroke="white" stroke-width="2" stroke-linejoin="round"/>
<path id="Vector_2" d="M47.3965 35.5C47.3965 34.7817 47.6818 34.0928 48.1897 33.5849C48.6976 33.077 49.3865 32.7916 50.1048 32.7916H55.5215C56.2398 32.7916 56.9287 33.077 57.4366 33.5849C57.9445 34.0928 58.2298 34.7817 58.2298 35.5V58.5208C58.2298 59.5982 57.8018 60.6315 57.0399 61.3934C56.2781 62.1553 55.2448 62.5833 54.1673 62.5833H47.3965V35.5Z" stroke="white" stroke-width="2" stroke-linejoin="round"/>
<path id="Vector_3" d="M14.8965 19.2499H25.7298M14.8965 28.7291H31.1465" stroke="white" stroke-width="2" stroke-linecap="round" stroke-linejoin="round"/>
</g>
</g>
</mask>
<g mask="url(#mask0_36_1785)">
<path id="Vector_4" d="M0 3H65V68H0V3Z" fill="#0076CE"/>
</g>
</g>
</g>
</svg>
