<svg width="1536" height="781" viewBox="0 0 1536 781" fill="none" xmlns="http://www.w3.org/2000/svg">
<path d="M0.107497 567.266C-13.6344 640.276 0.107497 757 0.107497 757H1536V0C1536 0 1478 47.0138 1451 68C1341.67 152.976 1246.29 92.2517 1105.5 116C957.033 141.043 919.752 257.324 770.187 276.037C632.645 293.245 557.716 199.916 420.345 218.238C255.102 240.279 134.274 284.651 52.3705 418.468C19.8 471.682 11.4329 507.095 0.107497 567.266Z" fill="#DDF3FF"/>
<rect width="1536" height="288" transform="matrix(1 0 0 -1 0 781)" fill="url(#paint0_linear_40_2797)"/>
<defs>
<linearGradient id="paint0_linear_40_2797" x1="768" y1="33.6" x2="768" y2="288" gradientUnits="userSpaceOnUse">
<stop stop-color="#FAFBFC"/>
<stop offset="1" stop-color="#FAFBFC" stop-opacity="0.08"/>
</linearGradient>
</defs>
</svg>
